<svg width="98" height="100" viewBox="0 0 98 100" fill="none" xmlns="http://www.w3.org/2000/svg">
<path d="M76.659 1.71742C76.659 3.90321 76.2999 6.97893 75.7847 9.2584C74.6918 14.114 72.7089 18.0172 69.805 21.0617C66.0579 24.9649 61.3428 27.0414 54.9572 27.6347C53.7082 27.7596 53.3178 27.8689 54.1921 27.8689C54.9728 27.8689 57.5021 28.5871 59.0165 29.2272C61.7175 30.3981 64.3092 32.1312 66.6512 34.3638L68.1656 35.8002L69.118 35.3006C70.7417 34.4262 72.1469 33.349 73.7862 31.7096C76.7527 28.6963 78.5793 25.1991 79.4693 20.7494C79.8908 18.7041 80.047 14.7385 79.7971 12.3966C79.4381 9.03982 78.3608 4.48088 77.143 1.24903L76.6746 1.14441e-05L76.659 1.71742Z" fill="white"/>
<path d="M20.4217 2.34187C19.5162 5.02728 18.7043 8.29035 18.3296 10.7728C17.9393 13.3333 17.9393 17.9703 18.3296 20.1405C18.8761 23.2318 20.1251 26.37 21.78 28.8836C23.4194 31.3349 26.1828 33.8797 28.759 35.2849L29.805 35.847L30.4608 35.1444C31.3819 34.1295 33.4272 32.4278 34.9416 31.3973C37.4709 29.6799 40.4529 28.4153 43.0291 27.9781L44.2625 27.7595L43.1696 27.6502C36.4561 26.9945 31.7722 24.9336 28.0095 20.968C26.6981 19.5784 25.7145 18.2201 24.7777 16.4715C22.4982 12.256 21.5302 8.02493 21.1867 0.936722C21.1555 0.171696 21.1399 0.187305 20.4217 2.34187Z" fill="white"/>
<path d="M45.2303 28.8837C39.4536 29.8204 34.8946 32.1624 30.7416 36.2998C28.3685 38.6573 26.9165 40.6713 25.605 43.4036C20.9836 52.9742 22.6542 64.2623 29.8829 72.3029C30.8353 73.3489 32.9586 75.2381 33.9891 75.9563L34.3326 76.1905L33.8486 77.3614C33.1304 79.1569 32.8025 80.6245 32.5371 83.3568C32.178 86.9789 32.2873 89.9922 32.8494 91.6159C33.3646 93.146 34.0515 94.2233 35.16 95.2693C36.8775 96.8774 39.1882 98.1421 42.6698 99.3599L44.5121 100H49.1023H53.6768L55.1444 99.516C58.9071 98.2514 61.3739 96.8931 63.1694 95.0976C65.2771 92.9899 65.886 91.2724 65.886 87.4317C65.886 83.2162 65.3396 79.6877 64.356 77.2678L63.8876 76.1592L64.8556 75.4723C66.2764 74.4418 69.1023 71.5379 70.2576 69.8985C72.7245 66.4012 74.2857 62.5137 74.9571 58.2357C75.2225 56.4871 75.1913 52.4746 74.8946 50.6635C73.911 44.8087 71.3661 40 67.0726 35.8782C63.4504 32.3966 59.2662 30.1952 54.2545 29.1179C52.1936 28.6807 47.2912 28.5558 45.2303 28.8837ZM64.0125 44.5902C65.4177 44.9805 67.1195 45.7455 68.3373 46.5574C70.2576 47.822 72.459 50.2264 73.9266 52.6776L74.5199 53.6612L74.4263 56.0343C74.2077 61.5144 72.4747 66.2451 68.9618 71.0226L68.1655 72.0843L66.9946 72.0219C64.7463 71.8813 63.4817 71.0382 60.8743 67.9001C59.0164 65.6674 58.0796 64.8087 56.1749 63.6534C53.8642 62.2326 53.146 62.0609 49.3365 61.9048C45.9641 61.7642 45.1991 61.6237 44.0125 60.8743C43.0289 60.2498 42.701 59.6409 42.701 58.3919C42.701 57.5488 42.7947 57.1272 43.0757 56.534C43.591 55.4723 45.1991 53.8173 46.3857 53.1147C47.338 52.5527 47.4317 52.5371 48.8369 52.5371C49.6331 52.5371 51.491 52.7244 52.9586 52.943C57.3771 53.6144 59.5472 53.3802 60.281 52.1624C60.7338 51.413 60.6558 50.5074 60.0312 49.2428C59.719 48.6495 59.4223 47.8532 59.3443 47.4941C59.0164 45.7299 60.281 44.2779 62.139 44.2623C62.5293 44.2623 63.3724 44.4028 64.0125 44.5902ZM35.2381 58.8759C37.1429 60.3279 36.6901 63.7627 34.4887 64.4184C32.8494 64.918 31.1007 63.0757 31.0851 60.8431C31.0695 59.5628 31.5847 58.7822 32.7088 58.4075C33.4583 58.1421 34.5355 58.345 35.2381 58.8759ZM39.1257 89.3677C40.7963 90.1171 40.8743 91.6472 39.2818 92.3653C38.5012 92.7244 37.9547 92.74 37.2209 92.4278C36.0812 91.9594 35.9719 90.3513 37.018 89.477C37.5956 88.993 38.2202 88.9617 39.1257 89.3677ZM61.0617 89.3365C61.5457 89.6331 61.9828 90.3981 61.9828 90.9758C61.9828 91.5847 61.4364 92.3029 60.8119 92.5059C58.8447 93.1616 56.9243 91.1632 58.2826 89.8829C59.0945 89.1179 60.2967 88.8837 61.0617 89.3365Z" fill="white"/>
<path d="M63.3411 58.6417C62.1389 59.2818 61.4988 61.1241 61.9828 62.6073C62.5761 64.4184 64.4652 65.0273 65.8391 63.872C66.9164 62.9664 67.4629 60.687 66.9008 59.5004C66.37 58.3919 64.6213 57.9703 63.3411 58.6417Z" fill="white"/>
<path d="M9.18033 36.5339C8.07182 36.8306 6.43248 37.6424 5.51132 38.345C4.69945 38.9539 4.04372 39.6877 2.27947 41.9516C1.77986 42.6073 1.06167 43.3723 0.686963 43.6534C0.312256 43.9344 0 44.2154 0 44.2779C0 44.3559 0.359095 44.8399 0.811866 45.3864C3.46604 48.6182 6.85402 51.0694 9.49259 51.694C10.8353 52.0218 12.9274 51.9125 14.4418 51.4442C16.3466 50.8509 19.5628 49.0086 21.4208 47.4317C22.8103 46.2451 23.4192 45.4488 24.8868 42.8571C25.6362 41.53 26.4013 40.281 26.5886 40.078C26.7603 39.8907 26.8384 39.7345 26.7603 39.7345C24.7307 39.6565 21.4988 39.3911 20.6557 39.2037C20.0468 39.0788 18.2826 38.4855 16.7369 37.8766C15.2069 37.2677 13.4895 36.6744 12.943 36.5339C11.7408 36.2529 10.1795 36.2529 9.18033 36.5339ZM14.9883 39.2506C15.6284 39.4067 17.1741 39.9063 18.4231 40.3278C19.9844 40.8743 21.1397 41.1709 22.1702 41.2958C24.8712 41.6237 25.0898 41.7174 23.107 41.7486C21.0304 41.7642 19.9063 41.6081 18.0796 41.046C14.4731 39.9375 14.0359 39.8595 12.2561 39.8595C11.0383 39.8595 10.1795 39.9531 9.28962 40.1873C7.74395 40.5933 5.55816 41.6549 4.19984 42.6541C2.66979 43.8095 2.60734 43.7783 3.88759 42.5449C6.97892 39.5784 11.2568 38.3138 14.9883 39.2506Z" fill="white"/>
<path d="M85.0429 36.5496C84.5433 36.6589 82.8727 37.2678 81.3115 37.8767C78.267 39.0633 77.1428 39.3599 75.0976 39.5005C72.0687 39.7034 71.4442 39.7503 71.3817 39.8127C71.3505 39.8439 71.491 40.1094 71.7096 40.3904C71.9282 40.6714 72.6776 41.9204 73.3645 43.1695C74.879 45.8549 76.0812 47.182 78.3762 48.712C81.5769 50.851 83.7314 51.7253 86.1046 51.8658C88.993 52.0375 91.2412 51.0539 94.598 48.1656C95.5191 47.3693 97.5956 45.0586 97.9547 44.4653C98.0328 44.3404 97.7049 43.9345 97.096 43.3724C96.5652 42.8728 95.6128 41.7955 94.9883 40.9681C93.6143 39.1414 92.5683 38.2046 91.0226 37.4083C88.9617 36.3311 87.057 36.05 85.0429 36.5496ZM89.5394 39.4224C91.5535 40.0469 93.8329 41.4677 95.3161 42.9977C95.644 43.3568 95.847 43.6378 95.7689 43.6378C95.6752 43.6378 95.4723 43.4973 95.3318 43.3412C94.879 42.8416 93.0054 41.6394 91.772 41.0617C89.9922 40.2186 88.4153 39.8595 86.4168 39.8595C84.637 39.8595 84.1998 39.9376 80.5777 41.0617C78.7353 41.6082 77.4863 41.7799 75.4879 41.7331C74.0359 41.6862 73.8954 41.6706 74.5511 41.577C77.8142 41.093 78.6573 40.9056 80.484 40.2655C83.872 39.0633 84.4496 38.954 86.573 39.0165C87.9313 39.0633 88.7432 39.1726 89.5394 39.4224Z" fill="white"/>
</svg>
