<svg width="91" height="100" viewBox="0 0 91 100" fill="none" xmlns="http://www.w3.org/2000/svg">
<path d="M13.5175 4.06183L9.8668 8.10722V17.1847V26.2457H4.98273H0.0822233V31.2613V36.2769H4.98273H9.8668V57.0301V77.7997H4.9334H0V82.8153V87.8309H4.9334H9.8668V93.011V98.1911H4.9334H0V99.0955V100H45.0584H90.1168V99.0955V98.1911H84.9367H79.7566V93.011V87.8309H84.9367H90.1168V82.8153V77.7997H85.0189H79.9211V56.9479V36.1125L85.0189 36.1618L90.1168 36.2111V31.1791V26.1635H84.9367H79.7566V17.1353V8.10722L76.4512 4.42361C74.6259 2.41736 72.9814 0.592003 72.7841 0.37822L72.4223 -7.62939e-06L68.7716 4.04538L65.1209 8.09077V17.1682V26.2457L58.7568 26.2128L52.3763 26.1635L52.3269 17.1024L52.294 8.04144L48.6598 4.0125C46.6535 1.79247 44.9597 0.0493317 44.8939 0.131554C44.8117 0.197334 43.1672 2.03913 41.2103 4.20983L37.6583 8.15655V17.2011V26.2457L31.0804 26.1963L24.5026 26.1635V17.1189V8.09077L21.2794 4.50584C19.5034 2.53247 17.8589 0.723564 17.6122 0.460449L17.1682 0.0164413L13.5175 4.06183ZM37.9872 56.9972V77.7997H31.2449H24.5026V56.9972V36.1947H31.2449H37.9872V56.9972ZM65.1209 56.9972V77.7997H58.2963H51.4718V56.9972V36.1947H58.2963H65.1209V56.9972ZM37.6583 93.011V98.1911H31.0804H24.5026V93.011V87.8309H31.0804H37.6583V93.011ZM65.1209 93.011V98.1911H58.7075H52.294V93.011V87.8309H58.7075H65.1209V93.011Z" fill="white"/>
</svg>
