<svg width="65" height="100" viewBox="0 0 65 100" fill="none" xmlns="http://www.w3.org/2000/svg">
<path d="M23.7521 0.774578V1.5491H21.8761H20.0172L18.7435 2.46132C18.0379 2.97767 15.5938 4.71606 13.2874 6.35117L9.10498 9.31158L9.12219 13.408C9.1394 15.6455 9.19104 17.5732 9.25989 17.6593C9.32873 17.7625 10.4819 18.124 11.8416 18.4682L14.3201 19.105H32.031H49.7418L52.2891 18.4682C53.6833 18.124 54.8709 17.7625 54.9397 17.6593C55.0086 17.556 55.0774 15.6283 55.0774 13.3908V9.29437L49.6385 5.42174L44.1824 1.5491H42.3236H40.4475V0.774578V4.95911e-05H32.0998H23.7521V0.774578ZM23.7521 4.21692V4.99144H32.0998H40.4475V4.21692V3.44239H41.9105H43.3735L48.5886 6.91916L53.7866 10.4131L42.9948 10.4648C37.074 10.482 27.315 10.482 21.3081 10.4648L10.4131 10.4131L15.5766 6.93637L20.7401 3.4596H22.2547L23.7521 3.44239V4.21692Z" fill="white"/>
<path d="M9.05337 29.1223C4.64717 33.6834 1.03271 37.4872 1.03271 37.556C1.03271 37.6421 15.0603 37.6937 32.2031 37.6937H63.3907L62.4613 36.6954C61.9449 36.1619 58.296 32.3581 54.3201 28.2617L47.1084 20.8262H32.0998H17.074L9.05337 29.1223Z" fill="white"/>
<path d="M0.120482 39.3632C0.0516351 39.4149 0 53.0982 0 69.7419V100H32.0998H64.1997V69.6214V39.2427H32.2203C14.6299 39.2427 0.172117 39.2944 0.120482 39.3632ZM10.8089 69.2255L10.7573 96.8159L7.7969 96.8675L4.81928 96.902V69.2772V41.6524H7.83133H10.8434L10.8089 69.2255Z" fill="white"/>
</svg>
